# xmcd
#
# Track frame offsets:
#	182
#	13785
#	25747
#	39617
#	52712
#	65857
#	79302
#	93650
#	108325
#	120232
#	135217
#	151012
#	164725
#	177202
#	189852
#	202677
#	214775
#	228112
#	241442
#	254777
#	269102
#	281015
#
# Disc length: 3913 seconds
#
# Revision: 3
# Processed by: cddbd v1.5.2PL0 Copyright (c) Steve Scherf et al.
# Submitted via: audiograbber 1.83.01
#
DISCID=2d0f4716
DTITLE=Jimmie Rodgers - Very Best Of Jimmie Rodgers
DYEAR=1997
DGENRE=Country
TTITLE0=Train Whistle Blues
TTITLE1=Blue Yodel # 1 (T Is for Texas)
TTITLE2=T.B. Blues
TTITLE3=In The Jailhouse Now
TTITLE4=Frankie and Johnny
TTITLE5=Blue Yodel # 8 (Mule Skinner Blues)
TTITLE6=The Brakeman's Blues (Yodeling The Blues Away)
TTITLE7=Why There's A Tear In My Eye
TTITLE8=Mississippi River Blues
TTITLE9=Jimmie Rodgers Last Yodel
TTITLE10=Gambling Bar Room Blues
TTITLE11=Mystery Of Number Five
TTITLE12=Waiting For A Train
TTITLE13=Travellin' Blues
TTITLE14=My Blue Eyed Jane
TTITLE15=Blue Yodel # 9 (Standing On The Corner)
TTITLE16=Pistol Packin' Papa
TTITLE17=Miss The Mississippi And You
TTITLE18=Somewhere Down Below The Dixon Line
TTITLE19=The Soldier's Sweetheart
TTITLE20=Hobo Bill's Last Ride
TTITLE21=Peach Picking Time Down In Georgia
EXTD=
EXTT0=
EXTT1=
EXTT2=
EXTT3=
EXTT4=
EXTT5=
EXTT6=
EXTT7=
EXTT8=
EXTT9=
EXTT10=
EXTT11=
EXTT12=
EXTT13=
EXTT14=
EXTT15=
EXTT16=
EXTT17=
EXTT18=
EXTT19=
EXTT20=
EXTT21=
PLAYORDER=
